<svg xmlns="http://www.w3.org/2000/svg" viewBox="0 0 512 512">
  <defs>
    <linearGradient id="bg" x1="0%" y1="0%" x2="100%" y2="100%">
      <stop offset="0%" style="stop-color:#ff6b9d"/>
      <stop offset="100%" style="stop-color:#ffa3c2"/>
    </linearGradient>
  </defs>
  <rect width="512" height="512" rx="100" fill="url(#bg)"/>
  <path d="M256 380c-8 0-16-3-22-9l-90-86c-40-38-40-100 0-138 19-18 44-28 71-28 20 0 39 6 55 17 16-11 35-17 55-17 27 0 52 10 71 28 40 38 40 100 0 138l-90 86c-6 6-14 9-22 9h-28z" fill="white" opacity="0.95"/>
</svg>
